<?xml version="1.0" encoding="utf-8"?>
<!-- Generator: Adobe Illustrator 22.1.0, SVG Export Plug-In . SVG Version: 6.00 Build 0)  -->
<svg version="1.1" id="图层_1" xmlns="http://www.w3.org/2000/svg" xmlns:xlink="http://www.w3.org/1999/xlink" x="0px" y="0px"
	 viewBox="0 0 60 60" style="enable-background:new 0 0 60 60;" xml:space="preserve">
<style type="text/css">
	.st0{fill:#FFFFFF;}
</style>
<g>
	<g>
		<path class="st0" d="M13.1,20.7v6.7c0,1.5,1.2,2.7,2.6,2.7c1.4,0,2.6-1.2,2.6-2.7v-6.7h6.5c1.4,0,2.6-1.2,2.6-2.7
			c0-1.5-1.2-2.7-2.6-2.7h-6.5V8.7c0-1.5-1.2-2.7-2.6-2.7c-1.4,0-2.6,1.2-2.6,2.7v6.7H6.6C5.2,15.3,4,16.5,4,18
			c0,1.5,1.2,2.7,2.6,2.7H13.1z M35.2,35.3c-1.4,0-2.6,1.2-2.6,2.7c0,1.5,1.2,2.7,2.6,2.7h18.2c1.4,0,2.6-1.2,2.6-2.7
			c0-1.5-1.2-2.7-2.6-2.7H35.2z M52.6,6.8c-1-1.1-2.6-1.1-3.6,0L7.4,49.5c-1,1.1-1,2.7,0,3.7c1,1.1,2.6,1.1,3.6,0l41.6-42.7
			C53.7,9.5,53.7,7.7,52.6,6.8L52.6,6.8z M53.4,46H35.2c-1.4,0-2.6,1.2-2.6,2.7c0,1.5,1.2,2.7,2.6,2.7h18.2c1.4,0,2.6-1.2,2.6-2.7
			C56,47.2,54.8,46,53.4,46L53.4,46z M53.4,46"/>
	</g>
</g>
</svg>
