<?xml version="1.0" encoding="utf-8"?>
<!-- Generator: Adobe Illustrator 22.1.0, SVG Export Plug-In . SVG Version: 6.00 Build 0)  -->
<svg version="1.1" id="图层_1" xmlns="http://www.w3.org/2000/svg" xmlns:xlink="http://www.w3.org/1999/xlink" x="0px" y="0px"
	 viewBox="0 0 60 60" style="enable-background:new 0 0 60 60;" xml:space="preserve">
<style type="text/css">
	.st0{display:none;stroke:#FFFFFF;stroke-miterlimit:10;}
	.st1{fill:#000000;}
</style>
<rect x="-302" y="-277" class="st0" width="723" height="754"/>
<path class="st1" d="M33,30L53.4,9.6c0.8-0.8,0.8-2.2,0-3c-0.8-0.8-2.2-0.8-3,0L30,27L9.6,6.6c-0.8-0.8-2.2-0.8-3,0
	c-0.8,0.8-0.8,2.2,0,3L27,30L6.6,50.4c-0.8,0.8-0.8,2.2,0,3C7,53.8,7.6,54,8.1,54c0.5,0,1.1-0.2,1.5-0.6L30,33l20.4,20.4
	c0.4,0.4,1,0.6,1.5,0.6c0.5,0,1.1-0.2,1.5-0.6c0.8-0.8,0.8-2.2,0-3L33,30z"/>
</svg>
