<?xml version="1.0" encoding="utf-8"?>
<!-- Generator: Adobe Illustrator 19.2.1, SVG Export Plug-In . SVG Version: 6.00 Build 0)  -->
<svg version="1.1" id="图层_1" xmlns="http://www.w3.org/2000/svg" xmlns:xlink="http://www.w3.org/1999/xlink" x="0px" y="0px"
	 viewBox="0 0 70 70" style="enable-background:new 0 0 70 70;" xml:space="preserve">
<style type="text/css">
	.st0{fill:#F9F9F9;}
</style>
<g>
	<g>
		<path class="st0" d="M35,6C18.4,6,5,19.4,5,36c0,16.6,13.4,30,30,30c16.6,0,30-13.4,30-30C65,19.4,51.6,6,35,6L35,6z M46.9,26.7
			L37.6,36l9.2,9.2c0.6,0.7,0.6,1.8,0,2.5c-0.7,0.7-1.8,0.7-2.6,0l-9.3-9l-9.3,9.2c-0.7,0.7-1.9,0.7-2.6,0c-0.7-0.7-0.7-1.9,0-2.6
			l9.2-9.3l-9.2-9.2c-0.4-0.4-0.6-0.8-0.6-1.3c0-0.5,0.2-1,0.6-1.3c0.3-0.4,0.8-0.6,1.3-0.6s1,0.2,1.3,0.6l9.3,9.2l9.3-9.3
			c0.4-0.4,0.8-0.6,1.3-0.6c0.5,0,1,0.2,1.3,0.6C47.7,24.8,47.7,26,46.9,26.7L46.9,26.7z M46.9,26.7"/>
	</g>
</g>
</svg>
