<?xml version="1.0" encoding="utf-8"?>
<!-- Generator: Adobe Illustrator 19.2.1, SVG Export Plug-In . SVG Version: 6.00 Build 0)  -->
<svg version="1.1" id="图层_1" xmlns="http://www.w3.org/2000/svg" xmlns:xlink="http://www.w3.org/1999/xlink" x="0px" y="0px"
	 viewBox="0 0 70 70" style="enable-background:new 0 0 70 70;" xml:space="preserve">
<style type="text/css">
	.st0{opacity:0.25;}
	.st1{fill:#FFFFFF;}
	.st2{fill:#FFFFFF;}
</style>
<g>
	<g class="st0">
		<g>
			<path class="st1" d="M35,5C18.4,5,5,18.4,5,35s13.4,30,30,30c16.6,0,30-13.4,30-30S51.6,5,35,5L35,5z M35,62"/>
		</g>
	</g>
	<g>
		<path class="st2" d="M35,24.6c-7.5,0-14.1,4.2-17.7,10.4c3.6,6.2,10.2,10.4,17.7,10.4c7.5,0,14.1-4.2,17.7-10.4
			C49.1,28.8,42.5,24.6,35,24.6L35,24.6z M35.1,42.2c-3.8,0-6.9-3.2-6.9-7.2c0-4,3.1-7.2,6.9-7.2c3.8,0,6.9,3.2,6.9,7.2
			C42,39,38.9,42.2,35.1,42.2L35.1,42.2z M35.1,39.8c2.6,0,4.6-2.2,4.6-4.8c0-2.7-2.1-4.8-4.6-4.8c-2.6,0-4.6,2.2-4.6,4.8
			C30.4,37.7,32.5,39.8,35.1,39.8L35.1,39.8z M35.1,39.8"/>
	</g>
</g>
</svg>