<?xml version="1.0" encoding="utf-8"?>
<!-- Generator: Adobe Illustrator 22.1.0, SVG Export Plug-In . SVG Version: 6.00 Build 0)  -->
<svg version="1.1" id="图层_1" xmlns="http://www.w3.org/2000/svg" xmlns:xlink="http://www.w3.org/1999/xlink" x="0px" y="0px"
	 viewBox="0 0 100 100" style="enable-background:new 0 0 100 100;" xml:space="preserve">
<style type="text/css">
	.st0{fill-rule:evenodd;clip-rule:evenodd;fill:#C7000B;}
	.st1{fill:#FFFFFF;}
</style>
<g>
	<path class="st0" d="M49.1,24.6v-3.9H36.3v3.9l0,0v3.9l0,0v3.9l0,0l0,0h3.9l0,0h3.9v3.9h-3.9h-3.9v3.9v3.9v3.4v0.5h12.7v-3.9h-8.8
		v-3.9h7.8v-0.5v-3.4v-3.9v-3.9h-4h-3.9v-3.9H49.1z M24.5,34.4C24.5,20.3,35.9,8.9,50,8.9c14.1,0,25.5,11.4,25.5,25.5
		c0,14.1-11.4,25.5-25.5,25.5C35.9,59.9,24.5,48.5,24.5,34.4z M28.5,34.4c0-11.9,9.6-21.5,21.5-21.5c11.9,0,21.5,9.7,21.5,21.5
		c0,11.9-9.6,21.5-21.5,21.5C38.1,55.9,28.5,46.3,28.5,34.4z M51,44.2v3.9h12.7v-3.9l0,0v-3.9l0,0v-3.9l0,0l0,0h-3.9l0,0h-3.9v-3.9
		h3.9h3.9v-3.9v-3.9v-3.4v-0.5H51v3.9h8.8v3.9H52V29v3.4v3.9v3.9h4h3.9v3.9H51z"/>
	<g>
		<path class="st1" d="M56.5,91.1c2.5,0,4.3-0.6,5.6-1.8c1.2-1.2,1.5-2.8,1.5-3.9c0-2.4-1-4.1-3-5l-0.1,0l0.1,0
			c0.9-0.5,2.1-1.4,2.1-4.3c0-1.6-0.6-3-1.7-4c-1.2-1.1-2.9-1.7-5-1.7l-10.8,0v20.6L56.5,91.1z M49.1,78.6v-4.3v0h0h6.5
			c1.2,0,3.1,0,3.1,2.3c0,0.8-0.4,1.4-1.1,1.8c-0.6,0.3-1.4,0.3-2,0.3L49.1,78.6L49.1,78.6L49.1,78.6z M49.1,82.4L49.1,82.4
			L49.1,82.4l7.1,0c0.7,0,1.6,0.1,2.3,0.6c0.7,0.5,1.1,1.1,1.1,2c0,0.7-0.2,1.3-0.6,1.6c-0.7,0.7-1.9,0.7-2.8,0.7h-0.1h-7.1h0v0
			L49.1,82.4z"/>
		<rect x="16.7" y="70.5" class="st1" width="4.1" height="20.6"/>
		<path class="st1" d="M24.2,80.6c0,2,0.3,3.6,1,5c0.6,1.2,1.4,2.1,2.6,3.1c1.8,1.5,4.4,2.2,7.7,2.2h5.6V87h-5.3
			c-3,0-5.1-0.7-6.4-2.2c-0.9-1-1.4-2.4-1.4-4.1c0-1.8,0.5-3.3,1.5-4.3c1.3-1.3,3.4-1.9,6.2-1.9h5.3v-3.9h-5.4
			c-1.8,0-3.4,0.2-4.7,0.6c-1.3,0.4-2.4,0.9-3.3,1.7C26.4,74,24.2,76.4,24.2,80.6z"/>
		<path class="st1" d="M66,80.6c0,2,0.3,3.7,1,5.2c0.6,1.3,1.5,2.4,2.6,3.3c1.7,1.4,4.2,2,7.7,2h5.9v-3.9h-5.6
			c-2.9,0-5.1-0.8-6.4-2.3c-0.9-1.1-1.4-2.5-1.4-4.2c0-1.9,0.5-3.4,1.6-4.4c1.3-1.3,3.4-2,6.2-2h5.6v-3.9h-5.7
			c-1.8,0-3.4,0.2-4.7,0.6c-1.3,0.4-2.4,0.9-3.3,1.7C68.5,73.6,66,76.2,66,80.6z"/>
	</g>
</g>
</svg>
