<?xml version="1.0" encoding="utf-8"?>
<!-- Generator: Adobe Illustrator 22.1.0, SVG Export Plug-In . SVG Version: 6.00 Build 0)  -->
<svg version="1.1" id="图层_1" xmlns="http://www.w3.org/2000/svg" xmlns:xlink="http://www.w3.org/1999/xlink" x="0px" y="0px"
	 viewBox="0 0 64 64" style="enable-background:new 0 0 64 64;" xml:space="preserve">
<style type="text/css">
	.st0{fill:#FFFFFF;enable-background:new    ;}
	.st1{fill:#BD091D;}
</style>
<circle class="st0" cx="32" cy="32" r="31"/>
<g>
	<path class="st1" d="M48,48h-6v-2h4v-4h2V48z M48,16v6h-2v-4h-4v-2H48z M16,48v-6h2v4h4v2H16z M16,16h6v2h-4v4h-2V16z M29.6,48
		c-0.3,0-0.6-0.3-0.6-0.7v-8.2c-1.8-0.4-3-1.9-3-3.6v-7.8c0-2.1,1.9-3.8,4.2-3.8h3.7c2.3,0,4.2,1.7,4.2,3.8v7.8c0,1.7-1.3,3.1-3,3.6
		v8.2c0,0.4-0.2,0.7-0.6,0.7H29.6z M28,20c0-2.2,1.8-4,4-4s4,1.8,4,4c0,1.1-0.4,2.1-1.2,2.8C34.1,23.6,33.1,24,32,24
		C29.8,24,28,22.2,28,20L28,20z"/>
</g>
</svg>
