<?xml version="1.0" encoding="utf-8"?>
<!-- Generator: Adobe Illustrator 22.1.0, SVG Export Plug-In . SVG Version: 6.00 Build 0)  -->
<svg version="1.1" id="图层_1" xmlns="http://www.w3.org/2000/svg" xmlns:xlink="http://www.w3.org/1999/xlink" x="0px" y="0px"
	 viewBox="0 0 100 100" style="enable-background:new 0 0 100 100;" xml:space="preserve">
<style type="text/css">
	.st0{fill:#B31E23;}
</style>
<g>
	<path class="st0" d="M87.9,40.9H63.7C73.1,5.8,57.3,4,57.3,4c-6.7,0-5.3,5.4-5.8,6.3c0,17.1-18,30.6-18,30.6v48.6
		c0,4.8,6.5,6.5,9,6.5h36.4c3.4,0,6.2-9.1,6.2-9.1c9-31,9-40.2,9-40.2C94,40.3,87.9,40.9,87.9,40.9L87.9,40.9z M87.9,40.9"/>
	<path class="st0" d="M23.5,40.9H9c-3,0-3,3-3,3l3,49C9,96,12.1,96,12.1,96h12.5c2.6,0,2.6-2.1,2.6-2.1V44.6
		C27.2,40.8,23.5,40.9,23.5,40.9L23.5,40.9z M23.5,40.9"/>
</g>
</svg>
