<?xml version="1.0" encoding="utf-8"?>
<svg xmlns="http://www.w3.org/2000/svg" viewBox="0 0 50 50">
    <path fill="#fff" style="line-height:normal;text-indent:0;text-align:start;text-decoration-line:none;text-decoration-style:solid;text-decoration-color:#000;text-transform:none;block-progression:tb;isolation:auto;mix-blend-mode:normal" d="M 25 2 C 12.309295 2 2 12.309295 2 25 C 2 37.690705 12.309295 48 25 48 C 37.690705 48 48 37.690705 48 25 C 48 12.309295 37.690705 2 25 2 z M 25 4 C 36.609824 4 46 13.390176 46 25 C 46 26.32113 45.873248 27.612156 45.640625 28.865234 C 45.272746 28.685731 44.690172 28.314922 43.996094 27.693359 C 42.990968 26.793247 41.756656 25.529056 40.28125 24.246094 C 37.330437 21.68017 33.333333 19 28 19 C 22.666667 19 18.893518 21.702542 15.476562 24.613281 C 15.453601 24.632841 15.431141 24.652297 15.408203 24.671875 C 13.442084 23.677002 11.333002 23 9 23 C 7.0604382 23 5.249548 23.684487 4.0175781 24.285156 C 4.3943001 13.007767 13.62986 4 25 4 z M 28 21 C 32.666667 21 36.169563 23.31983 38.96875 25.753906 C 40.368344 26.970944 41.571532 28.206753 42.660156 29.181641 C 42.790182 29.298082 42.914212 29.402194 43.041016 29.513672 C 42.086296 29.841104 41.199521 30.295273 40.34375 30.779297 C 40.285969 30.740491 40.238595 30.70724 40.179688 30.667969 C 38.253484 29.383833 35.738095 28 32 28 C 28.986505 28 26.419568 29.159138 24.048828 30.611328 C 23.20401 30.007301 22.349761 29.36407 21.478516 28.703125 C 20.131184 27.681012 18.740141 26.635129 17.275391 25.720703 C 20.434492 23.080074 23.567872 21 28 21 z M 9 25 C 10.655919 25 12.223076 25.431808 13.744141 26.111328 C 11.082571 28.425407 8.4316399 30.652186 5.1523438 31.867188 C 4.569083 30.178104 4.1964225 28.39152 4.0625 26.537109 C 5.0007685 26.019779 7.0912012 25 9 25 z M 15.658203 27.105469 C 17.215337 28.019818 18.739511 29.134688 20.271484 30.296875 C 20.927665 30.794667 21.590656 31.290131 22.253906 31.783203 C 21.812795 32.082796 21.364163 32.378296 20.931641 32.677734 C 20.071517 33.273205 19.22411 33.853217 18.376953 34.388672 C 16.015086 33.041117 13.576332 32 11 32 C 10.379269 32 9.8150055 32.028554 9.2792969 32.070312 C 11.654744 30.624688 13.68727 28.827651 15.658203 27.105469 z M 32 30 C 34.869422 30 36.736059 30.874639 38.388672 31.910156 C 36.444903 33.035094 34.515904 34 32 34 C 29.931924 34 27.929343 33.121172 25.898438 31.851562 C 27.837345 30.760587 29.814899 30 32 30 z M 45.109375 31.068359 C 44.916031 31.711299 44.691069 32.339846 44.439453 32.955078 C 43.716023 32.84139 43.016613 32.493543 42.273438 32.041016 C 43.207444 31.574239 44.131664 31.204927 45.109375 31.068359 z M 23.992188 33.027344 C 25.253912 33.881699 26.55263 34.623511 27.912109 35.158203 C 26.564379 35.885657 25.298907 36.881935 24.083984 37.935547 C 23.407109 37.520673 22.728098 37.099899 22.041016 36.658203 C 21.456372 36.282361 20.863352 35.909818 20.271484 35.537109 C 20.876146 35.134053 21.480706 34.729103 22.068359 34.322266 C 22.715849 33.874004 23.354024 33.446515 23.992188 33.027344 z M 40.255859 33.144531 C 41.28638 33.851153 42.340703 34.504008 43.566406 34.810547 C 43.303669 35.307349 43.013318 35.785711 42.712891 36.257812 C 42.661387 36.31461 42.438928 36.558423 41.953125 36.990234 C 41.420079 36.963672 39.889082 36.327743 38.144531 35.580078 C 37.690432 35.385464 37.214612 35.189047 36.720703 35.001953 C 37.869661 34.521401 38.912945 33.931838 39.882812 33.361328 C 40.011284 33.285757 40.129612 33.218773 40.255859 33.144531 z M 11 34 C 12.683144 34 14.463241 34.639979 16.302734 35.578125 C 14.617569 36.43281 12.885509 37 11 37 C 8.4444444 37 6.7070313 35.292969 6.7070312 35.292969 L 6.703125 35.296875 C 6.5717608 35.06371 6.4487766 34.826489 6.3261719 34.587891 C 7.1775283 34.327594 8.6473993 34 11 34 z M 32 36 C 33.75 36 35.637163 36.683505 37.355469 37.419922 C 38.272945 37.813126 39.105482 38.227506 39.912109 38.537109 C 38.024037 39.759774 35.302502 41 32 41 C 30.078527 41 28.033111 40.181492 25.914062 39.017578 C 28.021744 37.305236 30.14436 36 32 36 z M 18.386719 36.732422 C 19.235156 37.240108 20.093726 37.785559 20.958984 38.341797 C 21.470881 38.670873 21.990468 38.996403 22.507812 39.324219 C 21.148803 40.561386 19.867421 41.772958 18.734375 42.644531 C 17.618549 43.50286 16.656574 43.958907 16.066406 43.988281 C 13.406681 42.736311 11.055513 40.951248 9.1503906 38.757812 C 9.7222864 38.897201 10.331025 39 11 39 C 13.774889 39 16.173027 38.020914 18.386719 36.732422 z M 24.292969 40.419922 C 26.757437 41.859108 29.303534 43 32 43 C 33.902171 43 35.629632 42.644351 37.150391 42.115234 C 33.720171 44.553286 29.534877 46 25 46 C 22.82663 46 20.730523 45.669695 18.759766 45.058594 C 19.157642 44.809103 19.554951 44.536756 19.953125 44.230469 C 21.237354 43.2426 22.558035 41.980088 23.921875 40.740234 C 24.044169 40.629058 24.170016 40.530033 24.292969 40.419922 z" font-weight="400" font-family="sans-serif" white-space="normal" overflow="visible"></path>
</svg>
