<?xml version="1.0" encoding="UTF-8"?>
<svg width="50px" height="50px" viewBox="0 0 50 50" version="1.1" xmlns="http://www.w3.org/2000/svg" xmlns:xlink="http://www.w3.org/1999/xlink">
    <!-- Generator: Sketch 52.6 (67491) - http://www.bohemiancoding.com/sketch -->
    <title>分组 19</title>
    <desc>Created with Sketch.</desc>
    <g id="Page-1" stroke="none" stroke-width="1" fill="none" fill-rule="evenodd">
        <g id="信用卡-copy-6" transform="translate(-872.000000, -1018.000000)" fill="#FFFFFF">
            <g id="分组-19" transform="translate(872.000000, 1018.000000)">
                <path d="M25,50 C11.1928813,50 0,38.8071187 0,25 C0,11.1928813 11.1928813,0 25,0 C38.8071187,0 50,11.1928813 50,25 C50,38.8071187 38.8071187,50 25,50 Z M39.5542907,30.5249298 C39.5488211,29.7344534 38.9110423,29.0941029 38.1205943,29.0854524 L12.0828176,29.0854524 C11.7006856,29.0858277 11.3344825,29.2385873 11.0653615,29.5098786 C10.7962406,29.7811698 10.6464273,30.1485881 10.6491212,30.5307108 C10.6491212,31.3284935 11.3067138,31.9759693 12.0828176,31.9759693 L34.7040033,31.9759693 L28.9070715,37.772901 C28.6362519,38.0433844 28.4844392,38.4106741 28.485253,38.7934323 C28.4860668,39.1761906 28.6394399,39.5428314 28.9114073,39.8121608 C29.4750581,40.3758116 30.4000235,40.3685852 30.950667,39.8179418 L39.1351658,31.6319978 C39.4279703,31.3406736 39.5807502,30.9371241 39.5542907,30.5249298 Z M10.6722453,20.1739886 C10.6035646,20.5912058 10.7202867,21.0176273 10.9918777,21.3417038 C11.2634688,21.6657802 11.6629094,21.8552705 12.0857081,21.8606052 L38.1234848,21.8606052 C38.5054973,21.8598435 38.871475,21.7069606 39.1405122,21.4357537 C39.4095494,21.1645469 39.5594879,20.7973531 39.5571812,20.4153467 C39.5571812,19.6161188 38.8995886,18.968643 38.1234848,18.968643 L15.093291,18.968643 L21.2992309,12.7583673 C21.5701375,12.4876368 21.7219856,12.1201082 21.7211719,11.7371138 C21.7203582,11.3541193 21.5669497,10.9872392 21.2948951,10.7176623 C20.7309138,10.1582864 19.8219903,10.1563539 19.2556354,10.7133266 L11.0711367,18.9036064 C10.7378867,19.2360288 10.5888317,19.7107365 10.6722453,20.1739886 Z" id="合并形状"></path>
            </g>
        </g>
    </g>
</svg>