<?xml version="1.0" encoding="utf-8"?>
<!-- Generator: Adobe Illustrator 22.1.0, SVG Export Plug-In . SVG Version: 6.00 Build 0)  -->
<svg version="1.1" id="图层_1" xmlns="http://www.w3.org/2000/svg" xmlns:xlink="http://www.w3.org/1999/xlink" x="0px" y="0px"
	 viewBox="0 0 60 60" style="enable-background:new 0 0 60 60;" xml:space="preserve">
<style type="text/css">
	.st0{fill:#FFFFFF;stroke:#FFFFFF;stroke-width:0.2835;stroke-miterlimit:10;}
</style>
<g>
	<g>
		<path class="st0" d="M55.4,26.1c0.5-0.6,1.3-0.8,2-0.6c0.7,0.2,1.3,0.8,1.5,1.5c0.2,0.8,0,1.5-0.6,2.1l-4.7,4.8
			c-0.4,0.4-0.9,0.6-1.5,0.6c-0.6,0-1.1-0.2-1.5-0.6l-4.7-4.8c-0.5-0.5-0.8-1.3-0.6-2.1c0.2-0.8,0.8-1.3,1.5-1.5
			c0.7-0.2,1.5,0,2,0.6l0.9,0.9C48.5,17,40.1,9.3,30,9.3c-7.8,0-14.9,4.7-18.2,12c-0.5,1-1.7,1.5-2.7,1c-1-0.5-1.5-1.7-1-2.8
			C11.9,10.7,20.6,5,30,5c12.5,0,22.9,9.8,24.2,22.4L55.4,26.1L55.4,26.1z M51,37.7c1,0.5,1.5,1.8,1,2.8C48,49.3,39.4,55,30,55
			C17.4,55,7.1,45.2,5.8,32.6l-1.3,1.3c-0.5,0.5-1.3,0.8-2,0.6c-0.7-0.2-1.3-0.8-1.5-1.5c-0.2-0.7,0-1.5,0.5-2.1l4.7-4.8
			c0.8-0.8,2.1-0.8,2.9,0l4.7,4.8c0.6,0.5,0.8,1.3,0.6,2.1c-0.2,0.8-0.8,1.4-1.5,1.5c-0.7,0.2-1.5,0-2-0.6L10.1,33
			c1.4,10,9.8,17.7,19.9,17.7c7.8,0,15-4.7,18.2-12c0.2-0.5,0.7-0.9,1.2-1.1C49.9,37.4,50.5,37.4,51,37.7L51,37.7z M51,37.7"/>
	</g>
</g>
</svg>
