<?xml version="1.0" encoding="UTF-8"?>
<svg width="60px" height="60px" viewBox="0 0 60 60" version="1.1" xmlns="http://www.w3.org/2000/svg" xmlns:xlink="http://www.w3.org/1999/xlink">
    <!-- Generator: Sketch 52.6 (67491) - http://www.bohemiancoding.com/sketch -->
    <title>切片</title>
    <desc>Created with Sketch.</desc>
    <g id="Page-1" stroke="none" stroke-width="1" fill="none" fill-rule="evenodd">
        <path d="M48.5360157,46.2313838 L39.5616952,37.0626564 C39.4134286,36.9111718 39.2430476,36.7963564 39.0612456,36.7174825 C40.989245,34.1303349 42.1340904,30.9006344 42.1340904,27.3971435 C42.1340904,18.8925008 35.3884411,12 27.066895,12 C18.7453954,12 12,18.8925432 12,27.3971477 C12,35.9019597 18.7453954,42.7943335 27.0669415,42.7943335 C30.8861889,42.7943335 34.373383,41.3423432 37.0289205,38.9490965 C37.1024191,39.0961376 37.1990053,39.2341311 37.3193179,39.3570716 L46.291438,48.5257567 C46.9100845,49.1580811 47.9151687,49.1580811 48.5360114,48.5257567 C49.1546621,47.8934323 49.1546621,46.8636659 48.5360157,46.2313838 Z M27.0669415,40.3644217 C20.0598219,40.3644217 14.3778687,34.5582719 14.3778687,27.3971477 C14.3778687,20.233823 20.0597796,14.4301234 27.0669415,14.4301234 C34.0743149,14.4301234 39.7560143,20.2338188 39.7560143,27.3971477 C39.7560143,34.5582719 34.0742726,40.3644217 27.0669415,40.3644217 Z" id="形状" fill="#FFFFFF" fill-rule="nonzero"></path>
    </g>
</svg>