<?xml version="1.0" encoding="utf-8"?>
<!-- Generator: Adobe Illustrator 22.1.0, SVG Export Plug-In . SVG Version: 6.00 Build 0)  -->
<svg version="1.1" id="图层_1" xmlns="http://www.w3.org/2000/svg" xmlns:xlink="http://www.w3.org/1999/xlink" x="0px" y="0px"
	 viewBox="0 0 60 60" style="enable-background:new 0 0 60 60;" xml:space="preserve">
<style type="text/css">
	.st0{fill:#FFFFFF;}
</style>
<g>
	<path class="st0" d="M53.2,22.5H43c-0.8,0-1.6-0.4-2-1.2c-0.4-0.7-0.4-1.6,0-2.3c0.4-0.7,1.2-1.2,2-1.2h4.1
		c-3.8-5.4-10-8.6-16.6-8.6c-8.2,0-15.6,4.9-18.8,12.5c-3.1,7.6-1.4,16.3,4.4,22.1c5.8,5.8,14.5,7.5,22.1,4.4
		c7.6-3.1,12.5-10.6,12.5-18.8c0-1.3,1-2.3,2.3-2.3c1.3,0,2.3,1,2.3,2.3c0,13.8-11.2,25-25,25s-25-11.2-25-25c0-13.8,11.2-25,25-25
		c8.1,0,15.6,3.9,20.3,10.5v-4.2c0-1.3,1-2.3,2.3-2.3c1.3,0,2.3,1,2.3,2.3v9.4c0,0.6-0.2,1.2-0.7,1.7C54.4,22.2,53.8,22.5,53.2,22.5
		L53.2,22.5z M53.2,22.5"/>
</g>
</svg>
