<?xml version="1.0" encoding="utf-8"?>
<!-- Generator: Adobe Illustrator 22.1.0, SVG Export Plug-In . SVG Version: 6.00 Build 0)  -->
<svg version="1.1" id="图层_1" xmlns="http://www.w3.org/2000/svg" xmlns:xlink="http://www.w3.org/1999/xlink" x="0px" y="0px"
	 viewBox="0 0 100 100" style="enable-background:new 0 0 100 100;" xml:space="preserve">
<style type="text/css">
	.st0{fill:rgba(0,0,0,0.7);}
</style>
<g>
	<g>
		<path class="st0" d="M7.4,27.8l53.1,0c0.2,0,0.4-0.2,0.4-0.4v-8.1c0-0.2-0.2-0.4-0.4-0.4L7.4,19C7.2,19,7,19.2,7,19.4v8.1
			C7,27.7,7.2,27.8,7.4,27.8L7.4,27.8z M92.6,45.6H7.4c-0.2,0-0.4,0.2-0.4,0.4V54c0,0.2,0.2,0.4,0.4,0.4h85.3c0.2,0,0.4-0.2,0.4-0.4
			v-8.1C93,45.7,92.8,45.6,92.6,45.6L92.6,45.6z M78.5,72.2H7.4c-0.2,0-0.4,0.2-0.4,0.4v8.1C7,80.8,7.2,81,7.4,81h71.1
			c0.2,0,0.4-0.2,0.4-0.4v-8.1C78.8,72.3,78.7,72.2,78.5,72.2L78.5,72.2z M78.5,72.2"/>
	</g>
</g>
</svg>
