<svg t="1580705178570" class="icon" viewBox="0 0 1024 1024" version="1.1" xmlns="http://www.w3.org/2000/svg" p-id="1940" width="32" height="32"><path d="M822.8864 348.16a154.4192 154.4192 0 1 1 154.4192-154.4192A154.692267 154.692267 0 0 1 822.8864 348.16z m0-254.225067a99.805867 99.805867 0 1 0 99.805867 99.805867 99.9424 99.9424 0 0 0-99.805867-99.805867z" fill="#1296db" p-id="1941"></path><path d="M646.485333 943.854933h-341.333333a232.106667 232.106667 0 0 1-232.106667-232.106666v-341.333334a232.106667 232.106667 0 0 1 232.106667-232.106666h265.147733a27.306667 27.306667 0 0 1 0 54.613333H304.7424a177.493333 177.493333 0 0 0-177.493333 177.493333v341.333334a177.493333 177.493333 0 0 0 177.493333 177.493333h341.333333a177.493333 177.493333 0 0 0 177.493334-177.493333V448.1024a27.306667 27.306667 0 0 1 54.613333 0v263.7824a232.106667 232.106667 0 0 1-231.697067 231.970133z" fill="#1296db" p-id="1942"></path></svg>
