<?xml version="1.0" encoding="UTF-8"?>
<svg width="40px" height="40px" viewBox="0 0 40 40" version="1.1" xmlns="http://www.w3.org/2000/svg" xmlns:xlink="http://www.w3.org/1999/xlink">
    <!-- Generator: Sketch 52.6 (67491) - http://www.bohemiancoding.com/sketch -->
    <title>合并形状</title>
    <desc>Created with Sketch.</desc>
    <g id="Page-1" stroke="none" stroke-width="1" fill="none" fill-rule="evenodd">
        <g id="搜索-copy-7" transform="translate(-914.000000, -207.000000)" fill="#FFFFFF">
            <path d="M934,247 C922.954305,247 914,238.045695 914,227 C914,215.954305 922.954305,207 934,207 C945.045695,207 954,215.954305 954,227 C954,238.045695 945.045695,247 934,247 Z M935.247169,227.384615 L943.13413,219.497655 C943.584735,219.04705 943.584735,218.316475 943.13413,217.86587 C942.683525,217.415265 941.95295,217.415265 941.502345,217.86587 L933.615385,225.752831 L925.728424,217.86587 C925.277819,217.415265 924.547244,217.415265 924.096639,217.86587 C923.646035,218.316475 923.646035,219.04705 924.096639,219.497655 L931.9836,227.384615 L924.096639,235.271576 C923.646035,235.722181 923.646035,236.452756 924.096639,236.903361 C924.547244,237.353965 925.277819,237.353965 925.728424,236.903361 L933.615385,229.0164 L941.502345,236.903361 C941.95295,237.353965 942.683525,237.353965 943.13413,236.903361 C943.584735,236.452756 943.584735,235.722181 943.13413,235.271576 L935.247169,227.384615 Z" id="合并形状"></path>
        </g>
    </g>
</svg>