<?xml version="1.0" encoding="UTF-8"?>
<svg width="32px" height="32px" viewBox="0 0 32 32" version="1.1" xmlns="http://www.w3.org/2000/svg" xmlns:xlink="http://www.w3.org/1999/xlink">
    <!-- Generator: Sketch 61 (89581) - https://sketch.com -->
    <title>首页icon</title>
    <desc>Created with Sketch.</desc>
    <g id="首页icon" stroke="none" stroke-width="1" fill="none" fill-rule="evenodd" opacity="0.600000024">
        <g id="返回首页" fill="#000000" fill-rule="nonzero">
            <path d="M9.38139375,16.4281912 L10.3759502,16.4281912 L10.3759502,21.5030133 C10.3759502,22.5027912 11.0811633,22.8571429 11.6843706,22.8571429 C11.7245844,22.8571429 11.7549899,22.8551959 11.7687215,22.8551959 L14.5081654,22.8551959 L14.5081654,17.4669088 C14.5081654,17.3754004 14.5807464,17.3092029 14.5905547,17.3033619 L17.4123878,17.2994679 C17.4408317,17.3189378 17.4928155,17.4308896 17.4947771,17.4805377 C17.4987004,17.6343497 17.4947771,21.2946856 17.4947771,22.4122563 L17.4947771,22.8551959 L20.2126428,22.8551959 C20.6912854,22.8551959 21.0993085,22.6312923 21.3886519,22.2049021 C21.5759894,21.9255095 21.6515129,21.6587722 21.662302,21.6081506 L21.6721102,21.5701843 L21.6927076,16.3950924 L22.6529351,16.3950924 C22.9923005,16.3950924 23.269874,16.2451744 23.4385758,15.9716227 C23.5592173,15.7720565 23.6190476,15.5150542 23.6190476,15.1811459 L23.6190476,14.9991026 L23.4885979,14.8696279 C22.8235986,14.2057053 16.3884066,7.79719695 16.363886,7.77285961 C16.2589378,7.67064278 16.1069099,7.61904762 15.9097641,7.61904762 C15.731254,7.61904762 15.5900152,7.66966929 15.4860478,7.77285961 L8.38095238,14.9689243 L8.38095238,15.1470736 C8.38095238,15.4770879 8.49178559,15.7944468 8.69481634,16.0426877 C8.89294297,16.2831406 9.14991908,16.4281912 9.38139375,16.4281912 L9.38139375,16.4281912 L9.38139375,16.4281912 Z M22.67059,15.5082397 C22.6666667,15.5082397 22.6607817,15.5082397 22.6529351,15.5082397 L20.7962336,15.5082397 L20.7756363,21.4397362 C20.7275759,21.5818662 20.5686823,21.9702902 20.2126428,21.9702902 L18.3932127,21.9702902 C18.3951743,21.2976061 18.3990976,17.6314292 18.3932127,17.4523064 C18.3892894,17.3004414 18.3333824,17.064856 18.1960669,16.8516609 C18.0116718,16.5722682 17.7380217,16.4184562 17.428081,16.4184562 L14.5905547,16.4184562 C14.067775,16.4184562 13.6077681,16.909097 13.6077681,17.4659353 L13.6077681,21.9702902 L11.7451817,21.9702902 L11.6843706,21.9722372 C11.3244078,21.9722372 11.2763474,21.7366517 11.2763474,21.5030133 L11.2763474,15.542312 L9.45201314,15.542312 C9.40787602,15.5072662 9.33725663,15.4284132 9.30292776,15.3047795 L15.9254573,8.59546169 L22.7088421,15.3524807 C22.6990339,15.4400952 22.6823599,15.4858494 22.67059,15.5082397 L22.67059,15.5082397 L22.67059,15.5082397 Z" id="形状" stroke="#000000" stroke-width="0.4"></path>
            <path d="M30.190037,10.0050135 C30.9930379,11.9036157 31.4000431,13.9210181 31.4000431,16.0000205 L31.4000431,16.0001978 C31.4031923,20.0852245 29.7804001,24.0035322 26.8898958,26.8901418 L26.8898958,26.8901417 C25.4885458,28.2966584 23.8266707,29.4167794 21.9970901,30.1879456 C20.0984879,30.9909465 18.0810856,31.3979517 16.0020832,31.3979517 L16.0020823,31.3979517 C11.9170556,31.4011477 7.99871357,29.7784013 5.11206959,26.8879417 L5.11206872,26.8879409 C2.21433191,24.0068519 0.589585334,20.0862548 0.599951201,15.9999907 L0.599951201,15.999815 C0.596846578,11.9147884 2.21963928,7.99648071 5.11014358,5.1098711 L5.11014351,5.10987118 C7.99207124,2.21245749 11.9134108,0.588487792 16.0000187,0.599942602 L16.0000182,0.599942602 C20.0850449,0.596802375 24.0033869,2.21954906 26.8900309,5.11000868 L26.8900314,5.11000913 C28.2964002,6.51278232 29.4171262,8.1751902 30.1900352,10.0050148 L30.190037,10.0050135 Z M28.5268351,21.2910266 L28.526835,21.2910268 C29.2361674,19.6174368 29.5998518,17.8177384 29.5960659,16.0000207 L29.5960659,15.9988902 C29.5972818,12.3926735 28.1644022,8.93399445 25.6132414,6.38522274 L25.6132415,6.38522286 C20.3140885,1.07555106 11.7139347,1.06702605 6.40426292,6.36619315 C6.39791347,6.37253002 6.39157031,6.37887317 6.38523344,6.38522262 L6.38523315,6.38522292 C1.07556134,11.684376 1.06703633,20.2845297 6.36620426,25.5942015 C6.37254113,25.600551 6.37888428,25.6068941 6.38523373,25.613231 L6.38523391,25.6132312 C11.684387,30.922903 20.2845407,30.931428 25.5942125,25.6322603 C25.600562,25.6259234 25.6069051,25.6195802 25.613242,25.6132308 L25.6132415,25.6132312 C26.8541736,24.3738014 27.8433223,22.9057706 28.5260449,21.2902262 L28.5268351,21.2910266 Z" id="形状"></path>
        </g>
    </g>
</svg>