<?xml version="1.0" encoding="UTF-8"?>
<svg width="32px" height="32px" viewBox="0 0 32 32" version="1.1" xmlns="http://www.w3.org/2000/svg" xmlns:xlink="http://www.w3.org/1999/xlink">
    <!-- Generator: Sketch 61 (89581) - https://sketch.com -->
    <title>语音icon</title>
    <desc>Created with Sketch.</desc>
    <g id="语音icon" stroke="none" stroke-width="1" fill="none" fill-rule="evenodd" opacity="0.600000024">
        <path d="M30.742852,9.77151851 C31.5771347,11.7440829 31.9999952,13.8400754 31.9999952,16.0000625 L31.9999952,16.000252 C32.0032671,20.2444154 30.3172572,24.3153651 27.3141501,27.3144259 L27.3141501,27.3144258 C25.8582089,28.7757349 24.1315936,29.9394915 22.2307397,30.7406993 C20.2581753,31.5749821 18.1621828,31.9978426 16.0021905,31.9978426 L16.0021896,31.9978426 C11.7580261,32.0011631 7.68704067,30.3152008 4.68794424,27.3121401 L4.68794333,27.3121392 C1.67732194,24.3188142 -0.0107184622,20.2454859 5.12181305e-05,16.0000368 L5.12181305e-05,15.9998542 C-0.00317434893,11.7556908 1.68283606,7.68474107 4.6859432,4.68568035 L4.68594312,4.68568043 C7.68013957,1.67539475 11.7542393,-0.0118385114 16.0000512,6.25339759e-05 L16.0000512,6.25339759e-05 C20.2442085,-0.00320002402 24.315194,1.68276258 27.3142904,4.68582329 L27.3142909,4.68582376 C28.7754464,6.14324355 29.9398315,7.87041239 30.7428501,9.77151989 L30.742852,9.77151851 Z M29.0148581,21.4971909 L29.014858,21.4971911 C29.7518233,19.7584045 30.1296755,17.8885969 30.1257421,16.0000679 L30.1257421,15.9988934 C30.1270053,12.2521925 28.6383063,8.65877672 25.9877622,6.01071474 L25.9877623,6.01071487 C20.4821748,0.494198851 11.5469924,0.48534174 6.0304764,5.99094383 C6.0238796,5.99752756 6.01728934,6.00411782 6.01070561,6.01071462 L6.01070531,6.01071493 C0.494189287,11.5163024 0.485332176,20.4514848 5.99093513,25.9680008 C5.99751885,25.9745976 6.00410912,25.9811879 6.01070591,25.9877716 L6.0107061,25.9877718 C11.5162936,31.5042878 20.451476,31.5131449 25.967992,26.0075422 C25.9745888,26.0009585 25.9811791,25.9943682 25.9877628,25.9877714 L25.9877623,25.9877719 C27.2770363,24.7000586 28.3047183,23.1748391 29.0140372,21.4963593 L29.0148581,21.4971909 Z M8.25150369,13.0012213 C8.76807328,13.0012213 9.1886432,13.4217912 9.1886432,13.9383608 L9.1886432,18.0617746 C9.1886432,18.5783442 8.76807328,18.9989141 8.25150369,18.9989141 L8.25150371,18.9989141 C7.73445555,18.9976577 7.31562133,18.5788228 7.31436419,18.0617746 L7.31436419,13.9383608 C7.31436419,13.4217912 7.73721983,13.0012213 8.25150371,13.0012213 L8.25150369,13.0012213 Z M12.1280613,11.0012284 C12.6423452,11.0012284 13.0652008,11.4217983 13.0652008,11.9383679 L13.0652008,20.0617675 C13.0652008,20.5783371 12.6423452,20.998907 12.1280613,20.998907 L12.1280613,20.998907 C11.6110131,20.9976505 11.1921789,20.5788156 11.1909218,20.0617675 L11.1909218,11.9383679 C11.1909218,11.4217983 11.6114917,11.0012284 12.1280613,11.0012284 L12.1280613,11.0012284 Z M16.0000475,8.00009627 C16.516617,8.00009627 16.937187,8.4229519 16.937187,8.93723578 L16.937187,23.0628996 C16.937187,23.5771835 16.516617,24.0000391 16.0000475,24.0000391 L16.0000475,24.0000391 C15.4829993,23.9987827 15.0641651,23.5799478 15.062908,23.0628996 L15.062908,8.93723578 C15.062908,8.4229519 15.4834779,8.00009627 16.0000475,8.00009627 L16.0000475,8.00009627 Z M23.7485912,13.0012213 C24.2651608,13.0012213 24.6857307,13.4217912 24.6857307,13.9383608 L24.6857307,18.0617746 C24.6857307,18.5783442 24.2651608,18.9989141 23.7485912,18.9989141 L23.7485912,18.9989141 C23.2315431,18.9976577 22.8127089,18.5788228 22.8114517,18.0617746 L22.8114517,13.9383608 C22.8114517,13.4217912 23.2343074,13.0012213 23.7485912,13.0012213 L23.7485912,13.0012213 Z M19.8743193,11.0012284 C20.3908889,11.0012284 20.8114589,11.4217983 20.8114589,11.9383679 L20.8114589,20.0617675 C20.8114589,20.5783371 20.3908889,20.998907 19.8743193,20.998907 L19.8743194,20.998907 C19.3572712,20.9976505 18.938437,20.5788156 18.9371798,20.0617675 L18.9371798,11.9383679 C18.9371798,11.4217983 19.3600355,11.0012284 19.8743194,11.0012284 L19.8743193,11.0012284 Z" id="形状" fill="#000000" fill-rule="nonzero"></path>
    </g>
</svg>