<?xml version="1.0" encoding="UTF-8"?>
<svg width="32px" height="32px" viewBox="0 0 32 32" version="1.1" xmlns="http://www.w3.org/2000/svg" xmlns:xlink="http://www.w3.org/1999/xlink">
    <!-- Generator: Sketch 61 (89581) - https://sketch.com -->
    <title>返回icon-选中</title>
    <desc>Created with Sketch.</desc>
    <g id="返回icon-选中" stroke="none" stroke-width="1" fill="none" fill-rule="evenodd">
        <g id="上一步" fill="#C7000B" fill-rule="nonzero">
            <path d="M16.0000195,31.7143235 C7.32153322,31.7143235 0.285715505,24.6785058 0.285715505,16.0000195 C0.285715505,7.32153322 7.32153322,0.285715505 16.0000195,0.285715505 C24.6785058,0.285715505 31.7143235,7.32153322 31.7143235,16.0000195 C31.7143235,24.6785058 24.6785058,31.7143235 16.0000195,31.7143235 Z M16.0000195,29.619083 C23.521933,29.619083 29.619083,23.521933 29.619083,16.0000195 C29.619083,8.47810599 23.521933,2.38095604 16.0000195,2.38095604 C8.47810599,2.38095604 2.38095604,8.47810599 2.38095604,16.0000195 C2.38095604,23.521933 8.47810599,29.619083 16.0000195,29.619083 Z M10.238108,14.9523992 L10.238108,14.9523992 C9.65952369,14.9523992 9.19048773,15.4214352 9.19048773,16.0000195 C9.19048773,16.5786038 9.65952369,17.0476398 10.238108,17.0476398 L23.8571715,17.0476398 L23.8571714,17.0476398 C24.4357557,17.0476398 24.9047917,16.5786038 24.9047917,16.0000195 C24.9047917,15.4214352 24.4357557,14.9523992 23.8571714,14.9523992 L10.2381079,14.9523992 L10.238108,14.9523992 Z M9.61372636,16.0000195 L14.5689702,10.4088701 L14.5689702,10.4088701 C14.9657531,9.98777262 14.9460448,9.32475012 14.5249496,8.92796394 C14.103852,8.53118104 13.4408295,8.5508894 13.0440434,8.97198462 C13.0294572,8.98746452 13.0153458,9.00338501 13.001729,9.01972402 L7.42943681,15.3054456 L7.42943683,15.3054456 C7.07830071,15.7019273 7.07830071,16.2981084 7.42943677,16.6945901 L13.0027766,22.9803117 L13.0027766,22.9803117 C13.3731955,23.4247777 14.0337888,23.4848063 14.4782548,23.1143862 C14.9227208,22.7439673 14.9827495,22.0833739 14.6123293,21.638908 C14.5987123,21.622569 14.584601,21.6066485 14.5700149,21.5911686 L9.61372343,16.0000192 L9.61372636,16.0000195 Z" id="形状"></path>
        </g>
    </g>
</svg>