<?xml version="1.0" encoding="utf-8"?>
<!-- Generator: Adobe Illustrator 19.2.1, SVG Export Plug-In . SVG Version: 6.00 Build 0)  -->
<svg version="1.1" id="图层_1" xmlns="http://www.w3.org/2000/svg" xmlns:xlink="http://www.w3.org/1999/xlink" x="0px" y="0px"
	 viewBox="0 0 70 70" style="enable-background:new 0 0 70 70;" xml:space="preserve">
<style type="text/css">
	.st0{opacity:0.25;fill:#FFFFFF;}
	.st1{opacity:0.4;fill:#FFFFFF;}
	.st2{fill:#FFFFFF;}
</style>
<g>
	<g>
		<path class="st0" d="m34.8,5.1c-16.6,0 -30,13.4 -30,30s13.4,30 30,30s30,-13.4 30,-30s-13.4,-30 -30,-30l0,0zm0,56.8"/>
		<path class="st1" d="m34.8,5.1c-16.5,0 -30,13.5 -30,30c0,16.5 13.5,30 30,30c16.5,0 30,-13.5 30,-30c0,-16.6 -13.4,-30 -30,-30l0,0zm1.2,57l0,-1.1c0,-0.7 -0.5,-1.2 -1.2,-1.2c-0.6,0 -1.2,0.5 -1.2,1.2l0,1.1c-14,-0.6 -25.2,-11.9 -25.8,-25.8l1.2,0c0.6,0 1.2,-0.5 1.2,-1.2c0,-0.6 -0.5,-1.2 -1.2,-1.2l-1.1,0c0.6,-14 11.9,-25.2 25.8,-25.8l0,1.1c0,0.6 0.5,1.2 1.2,1.2c0.6,0 1.2,-0.5 1.2,-1.2l0,-1.1c14,0.6 25.2,11.9 25.8,25.8l-1.1,0c-0.6,0 -1.2,0.5 -1.2,1.2c0,0.6 0.5,1.2 1.2,1.2l1.1,0c-0.7,13.9 -11.9,25.2 -25.9,25.8l0,0zm0,0"/>
	</g>
	<g>
		<path class="st2" d="m33.4,16.8l-6.9,19.5c0,0.1 0,0.3 0,0.4l6.9,19.5c0.1,0.5 0.5,0.8 1,0.8c0.3,0 0.5,-0.1 0.7,-0.3c0.1,-0.1 0.2,-0.3 0.3,-0.5l6.9,-19.5c0,-0.1 0,-0.3 0,-0.4l-6.9,-19.5c-0.1,-0.5 -0.5,-0.8 -1,-0.8c-0.5,0 -0.9,0.3 -1,0.8l0,0zm1,34l-5.9,-14.3l11.7,0l-5.8,14.3zm18.2,2.4"/>
	</g>
</g>
</svg>
