<?xml version="1.0" encoding="utf-8"?>
<!-- Generator: Adobe Illustrator 22.1.0, SVG Export Plug-In . SVG Version: 6.00 Build 0)  -->
<svg version="1.1" id="图层_1" xmlns="http://www.w3.org/2000/svg" xmlns:xlink="http://www.w3.org/1999/xlink" x="0px" y="0px"
	 viewBox="0 0 100 100" style="enable-background:new 0 0 100 100;" xml:space="preserve">
<style type="text/css">
	.st0{fill:#FFFFFF;stroke:#FFFFFF;stroke-width:1.4173;stroke-miterlimit:10;}
</style>
<g>
	<path class="st0" d="M50.1,11.2L50.1,11.2c-11,0-21.3,4.3-29.1,12.3C13.2,31.4,9,41.9,9,53.1C9,76.2,27.4,95,50,95
		c10.9,0,21.2-4.3,29-12.3c7.8-7.9,12-18.4,12-29.7c0-10.7-4-21-11.2-28.8l-2,2C84.6,33.5,88.3,43,88.3,53c0,10.4-4,20.2-11.2,27.6
		C69.9,88,60.3,92.1,50,92.1S30.2,88,23,80.6C15.8,73.2,11.8,63.4,11.8,53c0-10.4,4-20.2,11.2-27.6C30.2,18,39.8,14,50,14h1.4v7.3
		l14.3-8.1L51.4,5v6.2H50.1z M50.1,11.2"/>
	<path class="st0" d="M64.6,52.5L43,36.4v32.2L64.6,52.5z M64.6,52.5"/>
</g>
</svg>
