<?xml version="1.0" standalone="no"?><!DOCTYPE svg PUBLIC "-//W3C//DTD SVG 1.1//EN" "http://www.w3.org/Graphics/SVG/1.1/DTD/svg11.dtd"><svg t="1585997457942" class="icon" viewBox="0 0 1024 1024" version="1.1" xmlns="http://www.w3.org/2000/svg" p-id="6521" width="64" height="64" xmlns:xlink="http://www.w3.org/1999/xlink"><defs><style type="text/css"></style></defs><path d="M696.1 785.6H164.5s-53.2-1.1-53.2-86.2h637.9c0 85.1-53.1 86.2-53.1 86.2z" fill="#42A5F5" p-id="6522"></path><path d="M146.8 96.9h567v602.5h-567V96.9z" fill="#E1F5FE" p-id="6523"></path><path d="M619.8 456.5H338.5V403h281.3v53.5z m-80.6 54H338.5v52.2h200.7v-52.2z m0 105.3H338.5v53.4h200.7v-53.4zM293.7 404h-52.9v53.5h52.9V404z m0 107.5h-52.9v52.2h52.9v-52.2z m0 105.3h-52.9v53.4h52.9v-53.4z" fill="#42A5F5" p-id="6524"></path><path d="M521.9 666.5h300.6v130.3H521.9V666.5z" fill="#37474F" p-id="6525"></path><path d="M521.9 796.8c0 33.2 67.3 60.1 150.3 60.1s150.3-26.9 150.3-60.1-67.3-60.1-150.3-60.1-150.3 26.9-150.3 60.1z" fill="#37474F" p-id="6526"></path><path d="M663.2 548.3l-225.5 99.2c-8 4-8 15 0 19l225.5 99.2c6 2 12 2 18 0l225.5-99.2c8-4 8-15 0-19l-225.5-99.2c-6-3-12-3-18 0z" fill="#78909C" p-id="6527"></path><path d="M864.6 670.5l-200.4-34.1c-5-1-11 3-12 8s3 11 8 12l192.4 32.1v148.3c0 6 4 10 10 10s10-4 10-10V680.6c0-5-4-9.1-8-10.1z" fill="#37474F" p-id="6528"></path><path d="M842.5 836.9c0 11.1 9 20 20 20.1 11.1 0 20-9 20.1-20 0-11.1-9-20-20-20.1-11.1-0.1-20.1 8.9-20.1 20z" fill="#37474F" p-id="6529"></path><path d="M892.6 867c0 17-30.1 60.1-30.1 60.1s-30-43.1-30-60.1 13-30.1 30.1-30.1 30 13 30 30.1z" fill="#37474F" p-id="6530"></path><path d="M401.4 164.1v-19.8c0-5.6 4.5-10.1 10.2-10.1H452.2c5.6 0 10.2 4.5 10.2 10.1v19.8h8.9v-24.4c0-6.8-5.8-12.3-13-12.3H406c-7.2 0-13.1 5.5-13.1 12.3v24.4h8.5zM527.4 350.3H336.5c-17.6 0-32-14.4-32-32V197.7c0-17.6 14.4-32 32-32h190.9c17.6 0 32 14.4 32 32v120.7c-0.1 17.5-14.4 31.9-32 31.9z" fill="#42A5F5" p-id="6531"></path><path d="M563 228.5c0 7-5.2 12.7-11.6 12.7H312.5c-6.4 0-11.6-5.7-11.6-12.7v-51.6c0-7 5.2-12.7 11.6-12.7h238.8c6.4 0 11.6 5.7 11.6 12.7v51.6z" fill="#42A5F5" p-id="6532"></path><path d="M561 240.4c0 0.3-5.1 0.5-11.4 0.5H315.9c-6.3 0-11.4-0.2-11.4-0.5v-2c0-0.3 5.1-0.5 11.4-0.5h233.6c6.3 0 11.4 0.2 11.4 0.5v2z" fill="#E1F5FE" p-id="6533"></path><path d="M441.9 246.4h-18.7c-3.9 0-7-3.1-7-7 0-3.8 3.1-7 7-7h18.7c3.8 0 7 3.1 7 7s-3.2 7-7 7z" fill="#E1F5FE" p-id="6534"></path></svg>